<?xml version="1.0" encoding="UTF-8"?><svg id="Ebene_2" xmlns="http://www.w3.org/2000/svg" xmlns:xlink="http://www.w3.org/1999/xlink" viewBox="0 0 2000 2000"><defs><style>.cls-1{fill:url(#Unbenannter_Verlauf_9);}.cls-2{opacity:.15;}</style><linearGradient id="Unbenannter_Verlauf_9" x1="1000" y1="0" x2="1000" y2="2000" gradientUnits="userSpaceOnUse"><stop offset="0" stop-color="#546bfc"/><stop offset="1" stop-color="#804dfd"/></linearGradient></defs><g id="Ebene_1-2"><path class="cls-1" d="M1000,0C447.72,0,0,447.72,0,1000s447.72,1000,1000,1000,1000-447.72,1000-1000S1552.28,0,1000,0ZM1000,1520c-287.19,0-520-232.81-520-520s232.81-520,520-520,520,232.81,520,520-232.81,520-520,520Z"/><path class="cls-2" d="M1000,0c-14.97,0-29.86.35-44.67,1h89.33c-14.81-.65-29.7-1-44.67-1Z"/><path class="cls-2" d="M1999,1001c0,419.18-339.82,759-759,759-.17,0-.33,0-.5,0-.17,0-.33,0-.5,0-78.89,0-154.96-12.04-226.5-34.37.16-.06.31-.11.47-.17-291.6-91.29-507.51-353.78-530.02-669.75-1.95-18.3-2.96-36.89-2.96-55.71,0-287.19,232.81-520,520-520,250.94,0,460.35,177.75,509.22,414.2-55.76-364.22-370.41-643.2-750.22-643.2C342.82,251,4.88,585.96.06,1001H0c0,1.24.02,2.47.03,3.71-.01,1.76-.03,3.52-.03,5.29,0,22.84,1.01,45.45,2.99,67.78,39.69,515.93,470.9,922.22,997.01,922.22,551.95,0,999.45-447.18,999.99-999h-.99Z"/></g></svg>